<svg width="668" height="600" viewBox="0 0 668 600" fill="none" xmlns="http://www.w3.org/2000/svg">
<path d="M0.666748 208.681C0.666748 333.597 134.648 465.713 232.724 545.69C277.123 581.897 299.323 600 334 600C368.677 600 390.877 581.897 435.277 545.69C533.353 465.713 667.333 333.6 667.333 208.68C667.333 11.6437 483.993 -77.9121 334 83.2923C184.005 -77.9121 0.666748 11.65 0.666748 208.681Z" fill="#FF5F57"/>
<path d="M270.44 258.22C273.423 253.957 275.903 250.417 278.11 247.387C279.977 250.637 282.06 254.423 284.567 258.983L341.577 362.633C347.11 372.703 352.54 382.58 357.99 389.747C363.823 397.413 374.077 407.923 390.513 408.23C406.947 408.54 417.59 398.423 423.707 390.98C429.423 384.023 435.217 374.36 441.127 364.507L442.973 361.427C450.333 349.16 454.967 341.49 459.067 335.95C462.847 330.847 465.03 329.18 466.66 328.26C468.287 327.337 470.84 326.323 477.16 325.707C484.02 325.04 492.98 325.013 507.287 325.013H534C547.807 325.013 559 313.82 559 300.013C559 286.207 547.807 275.013 534 275.013H506.207C493.303 275.013 481.89 275.013 472.323 275.943C461.95 276.95 451.857 279.18 442.023 284.75C432.19 290.317 425.083 297.823 418.883 306.2C413.163 313.923 407.293 323.71 400.653 334.777L399.07 337.417C396.18 342.237 393.767 346.25 391.613 349.697C389.587 346.173 387.33 342.07 384.62 337.147L327.64 233.543C322.503 224.197 317.383 214.885 312.193 208.059C306.52 200.602 296.797 190.742 281.213 189.9C265.629 189.059 254.899 197.815 248.458 204.618C242.561 210.845 236.47 219.552 230.356 228.29L220.044 243.023C212.472 253.84 207.725 260.58 203.616 265.44C199.833 269.913 197.731 271.38 196.179 272.187C194.627 272.997 192.221 273.877 186.386 274.41C180.048 274.99 171.804 275.013 158.601 275.013H134C120.193 275.013 109 286.207 109 300.013C109 313.82 120.193 325.013 134 325.013H159.604C171.503 325.013 182.051 325.017 190.934 324.203C200.569 323.323 209.968 321.38 219.27 316.537C228.571 311.693 235.554 305.11 241.8 297.72C247.559 290.907 253.607 282.267 260.43 272.517L270.44 258.22Z" fill="white"/>
</svg>
