<svg width="339" height="498" viewBox="0 0 339 498" fill="none" xmlns="http://www.w3.org/2000/svg">
<g clip-path="url(#clip0_213_432)">
<path d="M209.19 428.366C238.578 378.351 239.12 316.345 220.105 262.685C282.959 251.758 305.11 185.15 283.228 129.59C267.531 85.37 233.037 49.8219 191.551 29.9145C169.274 18.192 145.463 9.57912 120.564 5.75975C117.344 5.96019 110.903 1.66417 110.059 6.77391C110.737 13.4946 125.888 11.5393 131.268 13.9561C152.764 18.1106 172.952 27.1255 192.189 37.4301C229.821 56.7832 260.906 89.8519 275.12 130.591C295.167 182.96 275.466 242.759 216.137 252.403C197.031 197.671 104.611 112.517 56.9904 181.484C29.5383 262.047 157.44 273.227 209.474 264.792C227.8 317.251 225.446 375.383 209.19 428.366ZM64.3364 199.145C68.4995 175.21 98.243 163.847 119.179 171.205C157.894 184.76 189.602 216.086 205.381 254.378C164.999 258.749 63.0526 256.887 64.3364 199.145Z" fill="black"/>
<path d="M262.04 401.653C265.319 400.379 265.962 394.328 262.219 393.123C255.22 393.356 249.164 411.226 244.93 416.992C233.987 439.044 220.683 459.873 201.107 474.996C187.86 452.461 173.045 430.836 154.141 412.819L154.138 412.815L154.133 412.813L154.128 412.813L154.124 412.815C163.846 429.174 173.641 445.508 182.356 462.465C187.928 470.942 190.768 484.062 200.84 487.921C234.232 473.707 243.712 430.543 262.04 401.653Z" fill="black"/>
</g>
<defs>
<clipPath id="clip0_213_432">
<rect width="455" height="249" fill="white" transform="translate(338.775 52.1521) rotate(102.09)"/>
</clipPath>
</defs>
</svg>
