<svg width="100%" height="100%" id="svg" viewBox="0 0 1440 690" xmlns="http://www.w3.org/2000/svg" class="transition duration-300 ease-in-out delay-150"><defs><linearGradient id="gradient" x1="99%" y1="41%" x2="1%" y2="59%"><stop offset="5%" stop-color="#ff5f57"></stop><stop offset="95%" stop-color="#f78da7"></stop></linearGradient></defs><path d="M 0,700 L 0,175 C 74.38277511961724,169.45933014354068 148.76555023923447,163.91866028708134 248,157 C 347.23444976076553,150.08133971291866 471.32057416267946,141.78468899521533 577,200 C 682.6794258373205,258.21531100478467 769.9521531100477,382.94258373205736 873,407 C 976.0478468899523,431.05741626794264 1094.8708133971293,354.44497607655506 1192,349 C 1289.1291866028707,343.55502392344494 1364.5645933014353,409.27751196172244 1440,475 L 1440,700 L 0,700 Z" stroke="none" stroke-width="0" fill="url(#gradient)" fill-opacity="0.53" class="transition-all duration-300 ease-in-out delay-150 path-0"></path><defs><linearGradient id="gradient" x1="99%" y1="41%" x2="1%" y2="59%"><stop offset="5%" stop-color="#ff5f57"></stop><stop offset="95%" stop-color="#f78da7"></stop></linearGradient></defs><path d="M 0,700 L 0,408 C 106.80382775119617,372.2392344497608 213.60765550239233,336.47846889952154 291,354 C 368.39234449760767,371.52153110047846 416.37320574162675,442.32535885167465 527,501 C 637.6267942583733,559.6746411483253 810.8995215311006,606.2200956937799 910,618 C 1009.1004784688994,629.7799043062201 1034.0287081339713,606.7942583732057 1110,616 C 1185.9712918660287,625.2057416267943 1312.9856459330144,666.6028708133972 1440,708 L 1440,700 L 0,700 Z" stroke="none" stroke-width="0" fill="url(#gradient)" fill-opacity="1" class="transition-all duration-300 ease-in-out delay-150 path-1"></path></svg>